TITLE:   Sequence Time V1-A6 
FCM: NON-DROP FRAME
000001  PC4_02.08.2019_B_05-57-26        V     C        06:00:17:17 06:06:49:14 10:00:00:00 10:06:31:22 
M2      PC4_02.08.2019_B_05-57-26                 025.0 06:00:17:17 
*FROM CLIP NAME:  PC4_02.08.2019_B 05-57-26
000002  PC4_02.08.2019_B_05-57-26        A     C        06:00:17:17 06:06:49:14 10:00:00:00 10:06:31:22 
M2      PC4_02.08.2019_B_05-57-26                 025.0 06:00:17:17 
*FROM CLIP NAME:  PC4_02.08.2019_B 05-57-26
000003  PC4_02.08.2019_B_05-57-26        A2    C        06:00:17:17 06:06:49:14 10:00:00:00 10:06:31:22 
M2      PC4_02.08.2019_B_05-57-26                 025.0 06:00:17:17 
*FROM CLIP NAME:  PC4_02.08.2019_B 05-57-26
000004  PC4_02.08.2019_B_05-57-26        A3    C        06:00:17:17 06:06:49:14 10:00:00:00 10:06:31:22 
M2      PC4_02.08.2019_B_05-57-26                 025.0 06:00:17:17 
*FROM CLIP NAME:  PC4_02.08.2019_B 05-57-26
000005  PC4_02.08.2019_B_05-57-26        A4    C        06:00:17:17 06:06:49:14 10:00:00:00 10:06:31:22 
M2      PC4_02.08.2019_B_05-57-26                 025.0 06:00:17:17 
*FROM CLIP NAME:  PC4_02.08.2019_B 05-57-26
000006  PC4_02.08.2019_B_05-57-26        A5    C        06:00:17:17 06:06:49:14 10:00:00:00 10:06:31:22 
M2      PC4_02.08.2019_B_05-57-26                 025.0 06:00:17:17 
*FROM CLIP NAME:  PC4_02.08.2019_B 05-57-26
000007  PC4_02.08.2019_B_05-57-26        A6    C        06:00:17:17 06:06:49:14 10:00:00:00 10:06:31:22 
M2      PC4_02.08.2019_B_05-57-26                 025.0 06:00:17:17 
*FROM CLIP NAME:  PC4_02.08.2019_B 05-57-26
000008  PC4_02.08.2019_B_05-57-26        A     C        06:08:47:05 06:12:48:16 10:06:31:22 10:10:33:08 
M2      PC4_02.08.2019_B_05-57-26                 025.0 06:08:47:05 
*FROM CLIP NAME:  PC4_02.08.2019_B 05-57-26
000009  PC4_02.08.2019_B_05-57-26        A2    C        06:08:47:05 06:12:48:16 10:06:31:22 10:10:33:08 
M2      PC4_02.08.2019_B_05-57-26                 025.0 06:08:47:05 
*FROM CLIP NAME:  PC4_02.08.2019_B 05-57-26
000010  PC4_02.08.2019_B_05-57-26        A3    C        06:08:47:05 06:12:48:16 10:06:31:22 10:10:33:08 
M2      PC4_02.08.2019_B_05-57-26                 025.0 06:08:47:05 
*FROM CLIP NAME:  PC4_02.08.2019_B 05-57-26
000011  PC4_02.08.2019_B_05-57-26        A4    C        06:08:47:05 06:12:48:16 10:06:31:22 10:10:33:08 
M2      PC4_02.08.2019_B_05-57-26                 025.0 06:08:47:05 
*FROM CLIP NAME:  PC4_02.08.2019_B 05-57-26
000012  PC4_02.08.2019_B_05-57-26        A5    C        06:08:47:05 06:12:48:16 10:06:31:22 10:10:33:08 
M2      PC4_02.08.2019_B_05-57-26                 025.0 06:08:47:05 
*FROM CLIP NAME:  PC4_02.08.2019_B 05-57-26
000013  PC4_02.08.2019_B_05-57-26        A6    C        06:08:47:05 06:12:48:16 10:06:31:22 10:10:33:08 
M2      PC4_02.08.2019_B_05-57-26                 025.0 06:08:47:05 
*FROM CLIP NAME:  PC4_02.08.2019_B 05-57-26
000014  PC4_02.08.2019_B_05-57-26        V     C        06:08:47:05 06:27:40:20 10:06:31:22 10:25:25:12 
M2      PC4_02.08.2019_B_05-57-26                 025.0 06:08:47:05 
*FROM CLIP NAME:  PC4_02.08.2019_B 05-57-26
000015  PC4_02.08.2019_B_05-57-26        A     C        06:00:17:17 06:09:56:00 10:10:33:08 10:20:11:16 
M2      PC4_02.08.2019_B_05-57-26                 025.0 06:00:17:17 
*FROM CLIP NAME:  PC4_02.08.2019_B 05-57-26
000016  PC4_02.08.2019_B_05-57-26        A2    C        06:00:17:17 06:09:56:00 10:10:33:08 10:20:11:16 
M2      PC4_02.08.2019_B_05-57-26                 025.0 06:00:17:17 
*FROM CLIP NAME:  PC4_02.08.2019_B 05-57-26
000017  PC4_02.08.2019_B_05-57-26        A3    C        06:00:17:17 06:09:56:00 10:10:33:08 10:20:11:16 
M2      PC4_02.08.2019_B_05-57-26                 025.0 06:00:17:17 
*FROM CLIP NAME:  PC4_02.08.2019_B 05-57-26
000018  PC4_02.08.2019_B_05-57-26        A4    C        06:00:17:17 06:09:56:00 10:10:33:08 10:20:11:16 
M2      PC4_02.08.2019_B_05-57-26                 025.0 06:00:17:17 
*FROM CLIP NAME:  PC4_02.08.2019_B 05-57-26
000019  PC4_02.08.2019_B_05-57-26        A5    C        06:00:17:17 06:09:56:00 10:10:33:08 10:20:11:16 
M2      PC4_02.08.2019_B_05-57-26                 025.0 06:00:17:17 
*FROM CLIP NAME:  PC4_02.08.2019_B 05-57-26
000020  PC4_02.08.2019_B_05-57-26        A6    C        06:00:17:17 06:09:56:00 10:10:33:08 10:20:11:16 
M2      PC4_02.08.2019_B_05-57-26                 025.0 06:00:17:17 
*FROM CLIP NAME:  PC4_02.08.2019_B 05-57-26
000021  PC4_02.08.2019_B_05-57-26        A4    C        06:22:26:24 06:25:01:03 10:20:11:16 10:22:45:20 
M2      PC4_02.08.2019_B_05-57-26                 025.0 06:22:26:24 
*FROM CLIP NAME:  PC4_02.08.2019_B 05-57-26
000022  PC4_02.08.2019_B_05-57-26        A5    C        06:22:26:24 06:25:01:03 10:20:11:16 10:22:45:20 
M2      PC4_02.08.2019_B_05-57-26                 025.0 06:22:26:24 
*FROM CLIP NAME:  PC4_02.08.2019_B 05-57-26
000023  PC4_02.08.2019_B_05-57-26        A6    C        06:22:26:24 06:25:01:03 10:20:11:16 10:22:45:20 
M2      PC4_02.08.2019_B_05-57-26                 025.0 06:22:26:24 
*FROM CLIP NAME:  PC4_02.08.2019_B 05-57-26
000024  PC4_02.08.2019_B_05-57-26        A     C        06:22:26:24 06:27:40:20 10:20:11:16 10:25:25:12 
M2      PC4_02.08.2019_B_05-57-26                 025.0 06:22:26:24 
*FROM CLIP NAME:  PC4_02.08.2019_B 05-57-26
000025  PC4_02.08.2019_B_05-57-26        A2    C        06:22:26:24 06:27:40:20 10:20:11:16 10:25:25:12 
M2      PC4_02.08.2019_B_05-57-26                 025.0 06:22:26:24 
*FROM CLIP NAME:  PC4_02.08.2019_B 05-57-26
000026  PC4_02.08.2019_B_05-57-26        A3    C        06:22:26:24 06:27:40:20 10:20:11:16 10:25:25:12 
M2      PC4_02.08.2019_B_05-57-26                 025.0 06:22:26:24 
*FROM CLIP NAME:  PC4_02.08.2019_B 05-57-26
000027  PC4_02.08.2019_A_05-57-26        A4    C        06:00:17:17 06:01:23:20 10:22:45:20 10:23:51:23 
M2      PC4_02.08.2019_A_05-57-26                 025.0 06:00:17:17 
*FROM CLIP NAME:  PC4_02.08.2019_A 05-57-26
000028  PC4_02.08.2019_A_05-57-26        A5    C        06:00:17:17 06:01:23:20 10:22:45:20 10:23:51:23 
M2      PC4_02.08.2019_A_05-57-26                 025.0 06:00:17:17 
*FROM CLIP NAME:  PC4_02.08.2019_A 05-57-26
000029  PC4_02.08.2019_A_05-57-26        A6    C        06:00:17:17 06:01:23:20 10:22:45:20 10:23:51:23 
M2      PC4_02.08.2019_A_05-57-26                 025.0 06:00:17:17 
*FROM CLIP NAME:  PC4_02.08.2019_A 05-57-26
000030  PC4_02.08.2019_B_05-57-26        A5    C        06:26:07:06 06:30:24:19 10:23:51:23 10:28:09:11 
M2      PC4_02.08.2019_B_05-57-26                 025.0 06:26:07:06 
*FROM CLIP NAME:  PC4_02.08.2019_B 05-57-26
000031  PC4_02.08.2019_B_05-57-26        A6    C        06:26:07:06 06:30:24:19 10:23:51:23 10:28:09:11 
M2      PC4_02.08.2019_B_05-57-26                 025.0 06:26:07:06 
*FROM CLIP NAME:  PC4_02.08.2019_B 05-57-26
000032  PC4_02.08.2019_B_05-57-26        A4    C        06:26:07:06 06:37:05:03 10:23:51:23 10:34:49:20 
M2      PC4_02.08.2019_B_05-57-26                 025.0 06:26:07:06 
*FROM CLIP NAME:  PC4_02.08.2019_B 05-57-26
000033  PC4_02.08.2019_E_05-57-26        A     C        06:00:17:17 06:06:11:15 10:25:25:12 10:31:19:10 
M2      PC4_02.08.2019_E_05-57-26                 025.0 06:00:17:17 
*FROM CLIP NAME:  PC4_02.08.2019_E 05-57-26
000034  PC4_02.08.2019_E_05-57-26        A2    C        06:00:17:17 06:06:11:15 10:25:25:12 10:31:19:10 
M2      PC4_02.08.2019_E_05-57-26                 025.0 06:00:17:17 
*FROM CLIP NAME:  PC4_02.08.2019_E 05-57-26
000035  PC4_02.08.2019_E_05-57-26        A3    C        06:00:17:17 06:06:11:15 10:25:25:12 10:31:19:10 
M2      PC4_02.08.2019_E_05-57-26                 025.0 06:00:17:17 
*FROM CLIP NAME:  PC4_02.08.2019_E 05-57-26
000036  PC4_02.08.2019_E_05-57-26        V     C        06:00:17:17 06:09:42:00 10:25:25:12 10:34:49:20 
M2      PC4_02.08.2019_E_05-57-26                 025.0 06:00:17:17 
*FROM CLIP NAME:  PC4_02.08.2019_E 05-57-26
000037  PC4_02.08.2019_C_05-57-26        A5    C        06:00:17:17 06:03:41:07 10:28:09:11 10:31:33:01 
M2      PC4_02.08.2019_C_05-57-26                 025.0 06:00:17:17 
*FROM CLIP NAME:  PC4_02.08.2019_C 05-57-26
000038  PC4_02.08.2019_C_05-57-26        A6    C        06:00:17:17 06:03:41:07 10:28:09:11 10:31:33:01 
M2      PC4_02.08.2019_C_05-57-26                 025.0 06:00:17:17 
*FROM CLIP NAME:  PC4_02.08.2019_C 05-57-26
000039  PC4_02.08.2019_B_05-57-26        A     C        06:00:17:17 06:02:06:06 10:31:19:10 10:33:07:24 
M2      PC4_02.08.2019_B_05-57-26                 025.0 06:00:17:17 
*FROM CLIP NAME:  PC4_02.08.2019_B 05-57-26
000040  PC4_02.08.2019_B_05-57-26        A2    C        06:00:17:17 06:02:06:06 10:31:19:10 10:33:07:24 
M2      PC4_02.08.2019_B_05-57-26                 025.0 06:00:17:17 
*FROM CLIP NAME:  PC4_02.08.2019_B 05-57-26
000041  PC4_02.08.2019_B_05-57-26        A3    C        06:00:17:17 06:02:06:06 10:31:19:10 10:33:07:24 
M2      PC4_02.08.2019_B_05-57-26                 025.0 06:00:17:17 
*FROM CLIP NAME:  PC4_02.08.2019_B 05-57-26
000042  PC4_02.08.2019_B_05-57-26        A5    C        06:33:48:09 06:37:05:03 10:31:33:01 10:34:49:20 
M2      PC4_02.08.2019_B_05-57-26                 025.0 06:33:48:09 
*FROM CLIP NAME:  PC4_02.08.2019_B 05-57-26
000043  PC4_02.08.2019_B_05-57-26        A6    C        06:33:48:09 06:37:05:03 10:31:33:01 10:34:49:20 
M2      PC4_02.08.2019_B_05-57-26                 025.0 06:33:48:09 
*FROM CLIP NAME:  PC4_02.08.2019_B 05-57-26
000044  PC4_02.08.2019_D_05-57-26        A     C        06:00:17:17 06:01:59:13 10:33:07:24 10:34:49:20 
M2      PC4_02.08.2019_D_05-57-26                 025.0 06:00:17:17 
*FROM CLIP NAME:  PC4_02.08.2019_D 05-57-26
000045  PC4_02.08.2019_D_05-57-26        A2    C        06:00:17:17 06:01:59:13 10:33:07:24 10:34:49:20 
M2      PC4_02.08.2019_D_05-57-26                 025.0 06:00:17:17 
*FROM CLIP NAME:  PC4_02.08.2019_D 05-57-26
000046  PC4_02.08.2019_D_05-57-26        A3    C        06:00:17:17 06:01:59:13 10:33:07:24 10:34:49:20 
M2      PC4_02.08.2019_D_05-57-26                 025.0 06:00:17:17 
*FROM CLIP NAME:  PC4_02.08.2019_D 05-57-26
000047  PC4_02.08.2019_D_05-57-25        A3    C        05:00:17:17 06:01:59:13 10:33:07:24 10:34:49:20 
M2      PC4_02.08.2019_D_05-57-26                 025.0 06:00:17:17 
*FROM CLIP NAME:  PC4_02.08.2019_D 05-57-26